# xmcd CD database file
#
# Track frame offsets:
#	150
#	17127
#	35222
#	52352
#	90577
#	108175
#	122287
#	152407
#	165355
#
# Disc length: 2503 seconds
#
# Revision: 4
# Processed by: cddbd v1.5.2PL0 Copyright (c) Steve Scherf et al.
# Submitted via: CDex 1.60beta1
#
DISCID=6609c509
DTITLE=Jimi Hendrix - The Authentic PPX Studio Recordings Vol.6 On The Killing Floor
DYEAR=1999
DGENRE=Rock
TTITLE0=Killing Floor (22) alt.(4) instruments central
TTITLE1=Money (3) alt 2 verses gtr.solo
TTITLE2=California Night (6) enhanced stereo (1) Nobody Loves Me
TTITLE3=Love Love (8) alt.(2) (Studio, Instr.central)
TTITLE4=You Got Me Running (5) enhanced stereo (1)
TTITLE5=Mr. Pitiful (2) alt.mix (1) instr.central
TTITLE6=Hush Now (4) longer vers.(3) dr loud, slow echo gtr., fades early
TTITLE7=No Business (2) instr.mix (1) no clean bs.- Sleepy Fate
TTITLE8=Satisfaction (4) alt.mix (2) longer
EXTD=(p) and (c) SPV Records 088-29802\nOriginal Producer: Ed Chalpin, PPX Studios, New York YEAR: 1999
EXTT0=
EXTT1=
EXTT2=
EXTT3=
EXTT4=
EXTT5=
EXTT6=
EXTT7=
EXTT8=
PLAYORDER=
